<?xml version="1.0" standalone="no"?>
<!DOCTYPE svg PUBLIC "-//W3C//DTD SVG 20010904//EN"
 "http://www.w3.org/TR/2001/REC-SVG-20010904/DTD/svg10.dtd">
<svg version="1.0" xmlns="http://www.w3.org/2000/svg"
 width="234.000000pt" height="234.000000pt" viewBox="0 0 234.000000 234.000000"
 preserveAspectRatio="xMidYMid meet">
<metadata>
Created by potrace 1.14, written by Peter Selinger 2001-2017
</metadata>
<g transform="translate(0.000000,234.000000) scale(0.100000,-0.100000)"
fill="#000000" stroke="none">
<path d="M1667 2015 c-67 -25 -128 -78 -167 -144 -6 -11 -20 -4 -60 32 -112
101 -267 99 -368 -4 -36 -37 -72 -105 -72 -137 0 -11 -4 -23 -9 -26 -5 -4
-137 -20 -293 -36 -377 -40 -378 -40 -418 -52 -53 -16 -86 -44 -109 -91 -29
-61 -161 -551 -161 -598 0 -73 65 -162 130 -179 19 -5 81 -12 137 -16 l101 -6
18 -71 c22 -90 44 -113 115 -121 49 -5 197 -11 732 -32 110 -5 167 -11 168
-18 2 -34 -3 -146 -8 -175 -8 -44 -11 -45 180 72 84 51 164 98 180 104 31 14
37 54 12 87 -8 11 -15 23 -15 26 0 4 66 10 148 14 81 4 164 11 184 17 75 20
138 101 138 178 0 23 -14 82 -31 133 -28 87 -29 94 -13 103 166 95 193 318 53
438 -42 36 -118 67 -166 67 -27 0 -27 -6 -7 71 38 150 -42 305 -187 360 -58
22 -157 24 -212 4z m191 -71 c72 -30 131 -106 146 -187 10 -52 -17 -138 -56
-183 -48 -55 -102 -78 -178 -78 -138 0 -234 97 -232 236 2 160 173 274 320
212z m-526 -53 c83 -36 136 -128 118 -207 -12 -54 -59 -116 -105 -138 -68 -34
-176 -17 -227 35 -26 27 -48 87 -48 133 0 84 37 141 115 177 51 24 92 24 147
0z m783 -435 c65 -28 72 -80 18 -141 -21 -23 -43 -50 -49 -60 -15 -27 -44 -13
-44 22 0 18 12 40 35 63 24 25 34 42 29 53 -10 27 -47 20 -75 -15 -29 -35 -59
-34 -59 2 0 34 19 61 53 75 41 18 50 18 92 1z m-1333 -37 c97 -50 134 -220 73
-338 -15 -29 -14 -30 15 -48 17 -9 33 -26 36 -36 14 -44 -50 -63 -96 -28 -21
17 -36 19 -110 14 -73 -5 -91 -3 -125 15 -82 42 -117 107 -117 217 1 129 49
199 157 226 43 11 123 0 167 -22z m586 9 c22 -22 14 -67 -14 -80 -45 -21 -87
21 -66 66 13 28 58 36 80 14z m-358 -118 c17 -17 20 -33 20 -117 0 -54 4 -104
9 -111 5 -8 21 -12 37 -10 41 4 54 38 54 140 0 65 4 90 16 102 21 21 40 20 64
-4 18 -18 20 -33 20 -149 0 -154 -7 -181 -49 -181 -17 0 -34 7 -39 16 -9 16
-11 16 -33 0 -31 -21 -108 -21 -135 2 -38 30 -44 57 -44 181 0 95 3 123 16
135 21 21 40 20 64 -4z m352 3 c16 -14 18 -33 18 -163 0 -100 -4 -150 -12
-158 -19 -19 -66 -15 -78 7 -5 11 -10 81 -10 157 0 114 3 141 17 156 20 22 41
23 65 1z m326 -5 c26 -26 11 -58 -64 -145 l-75 -88 73 -3 c79 -3 98 -12 98
-48 0 -35 -33 -44 -155 -44 -110 0 -148 8 -159 35 -9 24 8 50 85 137 38 42 69
79 69 82 0 3 -29 6 -65 6 -53 0 -66 3 -75 19 -13 25 -13 27 6 45 12 13 39 16
133 16 78 0 121 -4 129 -12z m406 -100 c8 -14 7 -21 -6 -34 -30 -30 -75 9 -48
42 16 18 39 15 54 -8z"/>
<path d="M605 1326 c-31 -31 -48 -97 -39 -149 7 -46 59 -107 90 -107 16 0 15
3 -5 21 -12 12 -20 28 -17 36 3 8 6 17 6 19 0 10 54 2 82 -12 37 -19 44 -12
54 54 8 51 -17 124 -49 147 -34 24 -94 19 -122 -9z"/>
</g>
</svg>
